<svg width="42" height="42" viewBox="0 0 42 42" fill="none" xmlns="http://www.w3.org/2000/svg">
<path d="M30.5353 32.0001L31.7165 30.8267C37.1818 31.0052 37.2658 30.8136 37.506 30.2518L39.0075 26.5965L39.119 26.25L38.997 25.9468C38.9327 25.7867 38.7345 25.3089 35.322 22.0552V20.3437C39.2595 16.5506 39.1755 16.3564 38.951 15.8012L37.4561 12.1078C37.2317 11.5539 37.1464 11.3374 31.7205 11.4857L30.5392 10.2651C30.6612 8.46707 30.5992 6.66133 30.3542 4.87594L30.2019 4.53075L26.2985 2.8245C25.7237 2.562 25.5215 2.4675 21.836 6.48112L20.1797 6.45619C16.3852 2.40581 16.2054 2.47931 15.6371 2.709L12.008 4.17637C11.4397 4.40606 11.2389 4.48744 11.4594 9.99993L10.2874 11.1681C4.82473 10.9896 4.74073 11.1838 4.50317 11.7429L2.99905 15.3996L2.88092 15.75L3.0043 16.0545C3.06861 16.212 3.25892 16.6845 6.6793 19.9421V21.6484C2.7418 25.4415 2.82711 25.6357 3.05286 26.1922L4.54648 29.8896C4.77486 30.4552 4.85623 30.6561 10.2808 30.5143L11.462 31.7415C11.3396 33.5367 11.3999 35.3397 11.6419 37.1227L11.7941 37.4706L15.7224 39.1873C16.2934 39.4262 16.4915 39.5115 20.1665 35.5123L21.8229 35.5333C25.6226 39.5889 25.8169 39.5102 26.372 39.2857L29.9932 37.8223C30.5655 37.5952 30.765 37.5152 30.5353 32.0001ZM14.9717 23.4373C14.5137 22.2404 14.4194 20.9348 14.7006 19.6845C14.9819 18.4342 15.6261 17.2948 16.5525 16.4092C17.4789 15.5237 18.6462 14.9315 19.9079 14.7069C21.1696 14.4823 22.4696 14.6353 23.6447 15.1468C24.8197 15.6583 25.8176 16.5054 26.513 17.5818C27.2084 18.6583 27.5704 19.9162 27.5536 21.1976C27.5368 22.4791 27.1419 23.727 26.4184 24.7849C25.695 25.8427 24.6753 26.6634 23.4872 27.1438C21.8661 27.7777 20.06 27.7436 18.4641 27.0489C16.8681 26.3543 15.6124 25.0557 14.9717 23.4373Z" fill="#D9EAFF"/>
</svg>
