 <svg
      width="327"
      height="473"
      viewBox="0 0 327 473"
      fill="none"
      xmlns="http://www.w3.org/2000/svg"
    >
      <path
        fillRule="evenodd"
        clipRule="evenodd"
        d="M233.883 108.452C210.395 74.7507 185.558 39.1155 163.5 0C141.442 39.1155 117.424 73.3863 94.7097 105.798C63.2839 150.639 34.3525 191.921 16.5553 237.55C5.95205 259.217 0 283.576 0 309.324C0 399.623 73.2014 472.824 163.5 472.824C253.799 472.824 327 399.623 327 309.324C327 287.762 322.826 267.174 315.242 248.325C299.511 202.615 268.129 157.588 233.883 108.452Z"
        fill="#2D3948"
      />
      <path
        fillRule="evenodd"
        clipRule="evenodd"
        d="M222.847 136.63C202.885 107.989 181.778 77.7052 163.033 44.4634C144.287 77.7051 123.876 106.83 104.572 134.374C77.8653 172.482 53.2784 207.565 38.1537 246.342C29.1426 264.755 24.0844 285.456 24.0844 307.338C24.0844 384.077 86.2936 446.286 163.033 446.286C239.771 446.286 301.981 384.077 301.981 307.338C301.981 289.014 298.433 271.518 291.988 255.499C278.619 216.653 251.95 178.388 222.847 136.63Z"
        fill="#3E4E62"
      />
      <mask
        id="mask0"
        mask-type="alpha"
        maskUnits="userSpaceOnUse"
        x="24"
        y="44"
        width="278"
        height="403"
      >
        <path
          fillRule="evenodd"
          clipRule="evenodd"
          d="M222.847 136.63C202.885 107.989 181.778 77.7052 163.033 44.4634C144.287 77.7051 123.876 106.83 104.572 134.374C77.8653 172.482 53.2784 207.565 38.1537 246.342C29.1426 264.755 24.0844 285.456 24.0844 307.338C24.0844 384.077 86.2936 446.286 163.033 446.286C239.771 446.286 301.981 384.077 301.981 307.338C301.981 289.014 298.433 271.518 291.988 255.499C278.619 216.653 251.95 178.388 222.847 136.63Z"
          fill="white"
        />
      </mask>
      <g mask="url(#mask0)">
        <path
          d="M-5.07037 248.249C-79.7 248.249 -120 288.597 -120 288.597V517H686V288.597C686 288.597 614.356 288.597 562.115 259.777C509.874 230.956 459.126 313.815 412.856 313.815C366.585 313.815 356.137 236 280.015 236C203.893 236 177.026 271.305 135.233 288.597C93.4407 305.89 69.5592 248.249 -5.07037 248.249Z"
          fill="url(#paint0_linear)"
          fillOpacity="0.6"
        />
        <path
          d="M85.273 243.622C10.6527 243.622 -29.6423 295.496 -29.6423 295.496V589.14H776.257V295.496C776.257 295.496 704.622 295.496 652.387 258.444C600.153 221.391 549.411 327.918 503.147 327.918C456.882 327.918 446.435 227.875 370.323 227.875C294.21 227.875 267.347 273.265 225.559 295.496C183.772 317.728 159.893 243.622 85.273 243.622Z"
          fill="url(#paint1_linear)"
        />
      </g>
      <defs>
        <linearGradient
          id="paint0_linear"
          x1="283"
          y1="248.249"
          x2="283"
          y2="517"
          gradientUnits="userSpaceOnUse"
        >
          <stop offset="0.0625" stopColor="#008FFD" />
          <stop offset="1" stopColor="#004CE0" />
        </linearGradient>
        <linearGradient
          id="paint1_linear"
          x1="373.307"
          y1="243.622"
          x2="373.307"
          y2="589.14"
          gradientUnits="userSpaceOnUse"
        >
          <stop stopColor="#0094FF" />
          <stop offset="1" stopColor="#004CE0" />
        </linearGradient>
      </defs>
    </svg>
