<svg width="20" height="20" viewBox="0 0 20 20" fill="none" xmlns="http://www.w3.org/2000/svg">
<path d="M12.115 10L18.565 3.565C18.8475 3.28255 19.0062 2.89946 19.0062 2.5C19.0062 2.10055 18.8475 1.71746 18.565 1.435C18.2826 1.15255 17.8995 0.993866 17.5 0.993866C17.1006 0.993866 16.7175 1.15255 16.435 1.435L10 7.885L3.56503 1.435C3.28258 1.15255 2.89948 0.993866 2.50003 0.993866C2.10058 0.993866 1.71749 1.15255 1.43503 1.435C1.15257 1.71746 0.993893 2.10055 0.993893 2.5C0.993893 2.89946 1.15257 3.28255 1.43503 3.565L7.88503 10L1.43503 16.435C1.29444 16.5744 1.18285 16.7403 1.10669 16.9231C1.03054 17.1059 0.991333 17.302 0.991333 17.5C0.991333 17.698 1.03054 17.8941 1.10669 18.0769C1.18285 18.2597 1.29444 18.4256 1.43503 18.565C1.57447 18.7056 1.74038 18.8172 1.92317 18.8933C2.10595 18.9695 2.30201 19.0087 2.50003 19.0087C2.69805 19.0087 2.89411 18.9695 3.0769 18.8933C3.25968 18.8172 3.42559 18.7056 3.56503 18.565L10 12.115L16.435 18.565C16.5745 18.7056 16.7404 18.8172 16.9232 18.8933C17.106 18.9695 17.302 19.0087 17.5 19.0087C17.698 19.0087 17.8941 18.9695 18.0769 18.8933C18.2597 18.8172 18.4256 18.7056 18.565 18.565C18.7056 18.4256 18.8172 18.2597 18.8934 18.0769C18.9695 17.8941 19.0087 17.698 19.0087 17.5C19.0087 17.302 18.9695 17.1059 18.8934 16.9231C18.8172 16.7403 18.7056 16.5744 18.565 16.435L12.115 10Z" fill="white"/>
</svg>
